<svg width="300" height="153" viewBox="0 0 300 153" fill="none" xmlns="http://www.w3.org/2000/svg">
<path d="M25.8773 145.108C24.9426 146.728 24.1063 147.955 23.3683 148.74C23.1223 149.035 22.7288 149.231 22.2368 149.427C21.7448 149.624 21.1545 149.771 20.5641 149.869C19.9246 149.967 19.285 150.066 18.5963 150.066C17.9075 150.115 17.2188 150.115 16.5792 150.115C15.1525 150.115 14.0702 150.066 13.2338 149.967C12.4467 149.869 11.8563 149.673 11.4628 149.378C11.0692 149.035 10.774 148.544 10.6756 147.906C10.5772 147.268 10.528 146.384 10.528 145.206V120.416C10.528 119.827 10.6264 119.287 10.8724 118.796C11.0692 118.305 11.512 117.961 12.1023 117.716C12.4467 117.618 12.9879 117.47 13.775 117.323C14.5622 117.176 15.2017 117.078 15.6445 117.078V115.212H0V117.078C0.491965 117.127 1.08232 117.225 1.77107 117.421C2.50902 117.618 3.05018 117.814 3.44375 118.059C4.03411 118.354 4.42768 118.698 4.62447 119.139C4.82125 119.581 4.91965 120.121 4.91965 120.71V147.12C4.91965 147.808 4.82125 148.348 4.57527 148.789C4.32929 149.231 3.98491 149.575 3.44375 149.771C3.14857 149.918 2.55822 150.017 1.77107 150.115C1.03313 150.213 0.442768 150.262 0 150.311V152.176H28.9275L29.7147 141.18H27.8452C27.4516 142.162 26.8121 143.488 25.8773 145.108ZM77.4352 117.078C78.0256 117.127 78.8619 117.274 79.9442 117.618C81.0266 117.912 81.8629 118.256 82.3057 118.599C82.8468 118.992 83.2404 119.729 83.4864 120.907C83.7816 122.036 83.88 123.705 83.88 125.865V143.39L63.0699 115.261H52.6402V117.127C53.2798 117.176 54.1653 117.372 55.2476 117.814C56.3299 118.207 57.1663 118.698 57.8058 119.287C58.2978 119.729 58.6422 120.318 58.9374 121.152C59.2325 121.938 59.3801 122.772 59.3801 123.557V141.72C59.3801 144.126 59.2817 145.844 59.0357 146.826C58.7898 147.808 58.3962 148.544 57.8058 149.035C57.5107 149.28 56.8219 149.575 55.7396 149.869C54.6081 150.164 53.8209 150.36 53.3782 150.36V152.226H68.5307V150.36C68.1371 150.36 67.3008 150.164 66.0708 149.82C64.8409 149.477 64.0046 149.133 63.611 148.74C63.0699 148.249 62.6271 147.464 62.3811 146.286C62.1351 145.157 61.9875 143.488 61.9875 141.377V122.33L84.4211 152.52H86.6842V125.521C86.6842 123.656 86.7826 122.085 87.0285 120.858C87.2253 119.63 87.6681 118.796 88.3076 118.354C88.7504 118.059 89.4884 117.814 90.4723 117.569C91.4562 117.323 92.2434 117.176 92.7353 117.176V115.31H77.6812V117.078H77.4352ZM163.283 117.078C163.775 117.127 164.365 117.225 165.153 117.372C165.94 117.569 166.579 117.765 167.022 117.961C167.612 118.256 168.006 118.599 168.203 119.041C168.399 119.483 168.498 119.974 168.498 120.563V147.169C168.498 147.808 168.399 148.348 168.153 148.789C167.908 149.231 167.563 149.575 167.022 149.771C166.776 149.869 166.186 150.017 165.349 150.066C164.464 150.164 163.775 150.213 163.283 150.213V152.078H179.321V150.213C178.878 150.213 178.19 150.115 177.353 149.918C176.468 149.722 175.927 149.575 175.681 149.477C175.09 149.182 174.697 148.838 174.5 148.397C174.254 147.955 174.155 147.415 174.155 146.875V134.161H178.436C179.567 134.161 180.502 134.259 181.289 134.504C182.076 134.75 182.716 135.192 183.257 135.83C183.601 136.272 183.946 136.959 184.241 137.941C184.536 138.922 184.733 139.757 184.782 140.542H186.75V126.012H184.782C184.684 126.945 184.487 127.779 184.241 128.614C183.946 129.399 183.65 130.037 183.306 130.381C182.814 130.921 182.174 131.363 181.486 131.608C180.748 131.854 179.764 132.001 178.485 132.001H174.205V117.176H180.403C181.338 117.176 182.174 117.176 182.912 117.225C183.65 117.274 184.29 117.323 184.831 117.372C185.913 117.52 186.996 118.403 188.176 119.925C189.308 121.496 190.095 122.968 190.439 124.343H192.407V115.114H163.381V117.078H163.283ZM32.5189 117.078C33.0108 117.127 33.6504 117.225 34.4375 117.421C35.2247 117.618 35.8642 117.814 36.4054 118.01C37.0941 118.305 37.5861 118.649 37.7829 119.041C37.9797 119.434 38.0781 119.974 38.0781 120.563V147.268C38.0781 147.955 37.9305 148.495 37.6845 148.887C37.4385 149.28 36.9957 149.575 36.4546 149.82C36.1102 149.967 35.4706 150.066 34.5851 150.115C33.6996 150.164 33.0108 150.213 32.5681 150.262V152.127H49.2457V150.262C48.6553 150.262 47.9665 150.164 47.1302 149.967C46.2447 149.869 45.6543 149.722 45.2607 149.575C44.6704 149.329 44.2276 148.986 43.9816 148.544C43.7356 148.102 43.5881 147.611 43.5881 147.022V120.269C43.5881 119.679 43.6865 119.189 43.9324 118.698C44.1784 118.207 44.6212 117.912 45.2607 117.667C45.8019 117.47 46.4415 117.372 47.2286 117.225C47.9665 117.127 48.6061 117.029 49.1473 117.029V115.163H32.5189V117.078ZM266.153 149.575C265.562 149.28 264.923 148.838 264.333 148.348C263.693 147.857 263.004 147.071 262.266 146.04C260.495 143.684 259.019 141.671 257.839 140.051C256.658 138.382 255.133 136.37 253.313 133.964C254.641 133.572 255.822 133.13 256.953 132.59C258.035 132.05 258.97 131.412 259.757 130.675C260.594 129.89 261.233 128.957 261.676 127.828C262.119 126.748 262.316 125.472 262.316 124.048C262.316 122.478 261.971 121.103 261.332 120.023C260.692 118.894 259.806 118.01 258.773 117.323C257.642 116.636 256.412 116.096 255.034 115.752C253.657 115.409 252.181 115.261 250.607 115.261H233.536V117.127C234.028 117.176 234.618 117.225 235.307 117.372C235.995 117.52 236.586 117.667 236.979 117.814C237.619 118.059 238.012 118.403 238.209 118.894C238.357 119.385 238.455 119.876 238.455 120.514V147.218C238.455 147.906 238.357 148.446 238.111 148.887C237.865 149.329 237.52 149.673 236.979 149.869C236.684 150.017 236.094 150.115 235.307 150.213C234.52 150.311 233.929 150.36 233.486 150.409V152.275H249.131V150.409C248.59 150.409 247.95 150.311 247.163 150.213C246.376 150.115 245.835 150.017 245.54 149.869C244.9 149.624 244.506 149.28 244.31 148.838C244.113 148.397 244.014 147.857 244.014 147.218V135.535H247.803C249.869 138.186 251.837 140.788 253.608 143.291C255.379 145.795 257.396 148.789 259.61 152.226H269.547V150.36C269.105 150.36 268.514 150.262 267.875 150.164C267.186 149.967 266.596 149.771 266.153 149.575ZM247.458 133.179H244.064V117.372H248.491C250.853 117.372 252.673 118.01 253.952 119.336C255.231 120.661 255.871 122.428 255.871 124.637C255.871 127.288 255.084 129.35 253.46 130.872C251.837 132.394 249.869 133.179 247.458 133.179ZM225.369 119.581C223.795 117.912 221.925 116.636 219.761 115.703C217.596 114.771 215.284 114.329 212.824 114.329C210.462 114.329 208.199 114.771 206.035 115.703C203.87 116.587 201.951 117.912 200.328 119.581C198.655 121.299 197.376 123.312 196.441 125.668C195.507 128.025 195.015 130.675 195.015 133.67C195.015 136.419 195.458 138.971 196.343 141.377C197.229 143.782 198.459 145.844 200.033 147.513C201.607 149.231 203.477 150.557 205.641 151.538C207.806 152.52 210.216 152.962 212.775 152.962C215.185 152.962 217.448 152.52 219.613 151.587C221.728 150.704 223.647 149.378 225.221 147.758C226.894 146.089 228.173 144.028 229.108 141.622C230.043 139.217 230.535 136.566 230.535 133.621C230.535 130.724 230.092 128.074 229.157 125.668C228.272 123.361 227.042 121.299 225.369 119.581ZM223.647 140.395C223.204 142.408 222.516 144.175 221.532 145.746C220.597 147.317 219.367 148.544 217.891 149.378C216.415 150.262 214.743 150.704 212.873 150.704C210.905 150.704 209.183 150.262 207.757 149.427C206.33 148.593 205.149 147.366 204.214 145.844C203.231 144.273 202.542 142.506 202.099 140.493C201.656 138.481 201.41 136.222 201.41 133.719C201.41 131.461 201.607 129.301 202.05 127.288C202.493 125.227 203.132 123.459 203.969 121.938C204.903 120.318 206.084 119.09 207.56 118.109C209.036 117.176 210.807 116.685 212.873 116.685C214.743 116.685 216.366 117.078 217.842 117.912C219.269 118.747 220.499 119.876 221.433 121.348C222.368 122.821 223.106 124.637 223.598 126.748C224.09 128.859 224.336 131.166 224.336 133.719C224.287 136.173 224.09 138.432 223.647 140.395ZM157.576 135.192C156.887 134.406 156.002 133.768 155.067 133.179C154.083 132.59 153.099 132.099 152.066 131.657C150.935 131.166 149.754 130.675 148.524 130.234C147.294 129.792 146.064 129.252 144.785 128.663C143.358 127.975 142.276 127.141 141.538 126.061C140.8 125.03 140.407 123.705 140.407 122.085C140.407 120.563 140.997 119.287 142.178 118.207C143.358 117.127 144.736 116.636 146.409 116.636C147.983 116.636 149.311 116.93 150.344 117.52C151.427 118.109 152.312 118.943 153.099 119.925C153.887 120.956 154.477 122.134 154.969 123.41C155.461 124.687 155.854 126.012 156.248 127.436H158.363L158.167 115.163H156.1L155.018 116.93C153.887 116.243 152.657 115.605 151.328 115.114C150 114.574 148.475 114.329 146.753 114.329C145.277 114.329 143.801 114.574 142.473 115.114C141.095 115.605 139.915 116.341 138.882 117.225C137.799 118.158 137.012 119.287 136.422 120.465C135.831 121.692 135.585 122.968 135.585 124.392C135.585 126.846 136.176 128.81 137.307 130.332C138.439 131.854 140.062 133.081 142.178 134.013C143.26 134.504 144.49 134.995 145.966 135.535C147.442 136.075 148.721 136.566 149.852 137.008C151.525 137.646 152.755 138.628 153.591 139.904C154.428 141.18 154.821 142.555 154.821 144.028C154.821 145.059 154.674 145.942 154.428 146.678C154.182 147.464 153.739 148.102 153.198 148.691C152.657 149.28 151.919 149.722 151.033 150.017C150.148 150.311 149.114 150.507 147.885 150.507C146.261 150.507 144.884 150.213 143.654 149.575C142.424 148.986 141.391 148.151 140.505 147.12C139.57 146.04 138.783 144.862 138.193 143.586C137.602 142.31 137.111 140.935 136.668 139.364H134.552L134.798 152.176H136.865L137.996 150.262C139.177 150.998 140.603 151.587 142.276 152.127C143.949 152.618 145.572 152.913 147.245 152.913C150.836 152.913 153.837 151.833 156.248 149.722C158.659 147.611 159.888 144.911 159.888 141.671C159.888 140.297 159.692 139.119 159.347 138.088C158.905 137.008 158.314 136.075 157.576 135.192ZM128.55 149.575C128.009 149.28 127.37 148.887 126.632 148.298C125.894 147.758 125.156 146.973 124.418 146.04C122.45 143.586 120.63 141.279 118.908 139.168C117.186 137.008 114.972 134.455 112.365 131.461C114.283 129.694 116.202 127.681 118.121 125.521C120.039 123.361 121.909 121.25 123.729 119.238C124.172 118.796 124.664 118.403 125.353 118.109C125.992 117.814 126.632 117.569 127.222 117.47C127.616 117.421 127.911 117.323 128.157 117.274C128.403 117.225 128.649 117.176 128.895 117.176C129.141 117.176 129.337 117.127 129.485 117.127C129.682 117.127 129.78 117.078 129.829 117.078V115.212H115.956V117.078C116.202 117.078 116.497 117.127 116.891 117.127C117.284 117.127 117.727 117.225 118.219 117.323C118.613 117.421 119.006 117.569 119.301 117.716C119.646 117.863 119.793 118.109 119.793 118.354C119.793 119.09 119.498 119.925 118.859 120.858C118.219 121.79 117.235 123.067 115.858 124.637C114.628 126.061 113.25 127.485 111.725 128.908C110.2 130.332 108.675 131.706 107.101 133.032H106.56V120.269C106.56 119.679 106.658 119.189 106.855 118.698C107.051 118.207 107.445 117.863 108.035 117.667C108.38 117.569 108.921 117.421 109.659 117.274C110.397 117.127 110.987 117.078 111.479 117.029V115.163H96.1299V117.029C96.6218 117.078 97.163 117.176 97.8026 117.323C98.4421 117.52 98.9833 117.716 99.4752 117.912C100.066 118.207 100.459 118.55 100.656 118.992C100.853 119.434 100.951 119.925 100.951 120.514V147.12C100.951 147.758 100.853 148.298 100.607 148.74C100.361 149.182 100.016 149.526 99.4752 149.722C99.1801 149.869 98.6389 149.967 97.8518 150.017C97.0646 150.066 96.5235 150.115 96.0807 150.164V152.029H111.43V150.164C110.938 150.164 110.298 150.066 109.561 149.869C108.823 149.673 108.281 149.526 108.035 149.427C107.445 149.133 107.051 148.789 106.855 148.348C106.658 147.906 106.51 147.366 106.51 146.826V133.964H107.199C109.856 136.812 112.414 139.757 114.874 142.8C117.334 145.844 119.547 148.887 121.515 151.98H131.896V150.115C131.453 150.115 130.863 150.017 130.223 149.918C129.583 149.967 128.993 149.771 128.55 149.575ZM267.678 115.212V125.227H269.498C269.646 124.637 269.941 123.95 270.335 123.067C270.728 122.183 271.22 121.348 271.712 120.563C272.253 119.778 272.794 119.09 273.434 118.452C274.073 117.814 274.664 117.47 275.205 117.421C275.943 117.323 276.681 117.274 277.517 117.274C278.304 117.225 278.993 117.225 279.534 117.225H281.059V146.973C281.059 147.66 280.912 148.249 280.666 148.691C280.42 149.133 279.977 149.427 279.387 149.673C278.993 149.82 278.304 149.967 277.32 150.066C276.336 150.164 275.599 150.262 275.107 150.262V152.127H292.571V150.262C292.03 150.262 291.243 150.115 290.259 149.918C289.275 149.722 288.586 149.526 288.291 149.427C287.701 149.182 287.258 148.789 287.012 148.348C286.766 147.857 286.668 147.366 286.668 146.777V117.274H288.193C288.882 117.274 289.669 117.274 290.456 117.323C291.292 117.372 291.932 117.421 292.473 117.47C293.063 117.569 293.654 117.912 294.244 118.501C294.884 119.09 295.425 119.778 295.966 120.612C296.458 121.398 296.95 122.183 297.343 123.067C297.737 123.901 298.032 124.687 298.18 125.276H300V115.261H267.678V115.212ZM163.135 65.8286C163.135 65.6813 163.185 65.5832 163.185 65.485C163.185 63.9632 161.955 62.6869 160.38 62.6869C158.806 62.6869 157.576 63.9141 157.576 65.485C157.576 65.5341 157.576 65.5341 157.576 65.5831C155.904 66.5158 154.723 68.234 154.723 70.2466C154.723 73.2411 157.133 75.6464 160.134 75.6464C163.135 75.6464 165.546 73.2411 165.546 70.2466C165.644 68.3812 164.611 66.7613 163.135 65.8286ZM160.233 74.4192C157.921 74.4192 156.051 72.5538 156.051 70.2466C156.051 68.7739 156.887 67.5467 158.019 66.7613C158.511 67.5958 159.397 68.234 160.43 68.234C161.414 68.234 162.201 67.694 162.693 66.9576C163.677 67.7431 164.365 68.8721 164.365 70.2466C164.415 72.5538 162.545 74.4192 160.233 74.4192ZM179.37 77.0209H172.778C171.548 77.0209 170.564 78.0027 170.564 79.2299C170.564 80.4572 171.548 81.439 172.778 81.439H179.37V83.2062H181.191V74.9592H179.37V77.0209ZM120.482 54.8326H118.662V63.0796H120.482V61.3124H127.074C128.304 61.3124 129.288 60.3306 129.288 59.1034C129.288 57.8761 128.304 56.8944 127.074 56.8944H120.482V54.8326ZM139.669 75.6464C142.67 75.6464 145.08 73.2411 145.08 70.2466C145.08 68.3812 144.047 66.8104 142.571 65.8286C142.571 65.6813 142.621 65.5832 142.621 65.485C142.621 63.9632 141.391 62.6869 139.816 62.6869C138.242 62.6869 137.012 63.9141 137.012 65.485C137.012 65.5341 137.012 65.5341 137.012 65.5831C135.339 66.5158 134.159 68.234 134.159 70.2466C134.257 73.192 136.668 75.6464 139.669 75.6464ZM137.504 66.7613C137.996 67.5958 138.882 68.234 139.915 68.234C140.899 68.234 141.686 67.694 142.178 66.9576C143.162 67.7431 143.85 68.8721 143.85 70.2466C143.85 72.5538 141.981 74.4192 139.669 74.4192C137.357 74.4192 135.487 72.5538 135.487 70.2466C135.487 68.7739 136.323 67.4976 137.504 66.7613ZM227.976 83.1571L223.106 78.0518V29.9444L227.878 24.1519H227.976V0H218.285V11.2905H209.823V0H200.131V11.2905H191.669V0H182.027V20.372H117.875V0H108.232V11.2905H99.7704V0H90.0787V11.2905H81.6169V0H71.9252V24.201H72.0236L76.7957 29.9935V78.1009L71.9252 83.2062V92.5822H228.026V83.1571H227.976ZM97.9009 45.8493H91.8498V34.9024C91.8498 30.7789 93.1781 25.5755 94.8508 25.5755C96.5235 25.5755 97.8518 30.7789 97.8518 34.9024V45.8493H97.9009ZM148.967 90.5205H117.875V50.7091C124.123 39.9095 135.635 32.5461 148.967 32.2025V90.5205ZM182.027 90.5205H150.935V32.2025C164.267 32.5461 175.73 39.9095 182.027 50.7091V90.5205ZM208.052 45.8493H202.001V34.9024C202.001 30.7789 203.329 25.5755 205.002 25.5755C206.674 25.5755 208.003 30.7789 208.003 34.9024V45.8493H208.052ZM127.074 77.0209H120.482V75.0083H118.662V83.2553H120.482V81.488H127.074C128.304 81.488 129.288 80.5063 129.288 79.279C129.288 78.0518 128.304 77.0209 127.074 77.0209ZM170.515 59.1034C170.515 60.3306 171.499 61.3124 172.729 61.3124H179.321V63.0796H181.141V54.8326H179.321V56.8453H172.729C171.548 56.8453 170.515 57.8271 170.515 59.1034Z" fill="#DDC9A3"/>
</svg>
