<svg width="25" height="19" viewBox="0 0 25 19" fill="none" xmlns="http://www.w3.org/2000/svg">
<path d="M23.9613 0H1.00287C0.465616 0 0 0.465616 0 1.00287V4.44126V17.192C0 17.765 0.465616 18.1948 1.00287 18.1948H23.9613C24.5344 18.1948 24.9642 17.7292 24.9642 17.192V4.44126V1.00287C25 0.465616 24.5344 0 23.9613 0ZM2.04155 2.04155H22.9585V3.86819L12.6074 9.99284L2.04155 3.86819V2.04155ZM2.04155 16.1891V6.19627L12.1418 12.0344C12.2851 12.1418 12.4642 12.1777 12.6433 12.1777C12.8223 12.1777 13.0014 12.1418 13.1447 12.0344L22.9585 6.19627V16.1533H2.04155V16.1891Z" fill="#DDC9A3"/>
</svg>
