<svg width="18" height="27" viewBox="0 0 18 27" fill="none" xmlns="http://www.w3.org/2000/svg">
<path d="M8.83149 0C3.96881 0 0 3.96881 0 8.83149C0 13.3366 7.7946 24.8855 8.68847 26.1727C8.86725 26.4587 9.18904 26.6375 9.51084 26.6375H9.54659C9.90414 26.6375 10.2259 26.423 10.4047 26.1369C11.1556 24.8497 17.6987 13.3366 17.6987 8.86724C17.6987 3.96881 13.7299 0 8.83149 0ZM9.43933 23.6698C6.7577 19.5938 2.03804 11.7634 2.03804 8.83149C2.03804 5.07721 5.11297 2.00228 8.86725 2.00228C12.6215 2.00228 15.6965 5.07721 15.6965 8.83149C15.6607 11.7634 11.6919 19.558 9.43933 23.6698ZM8.83149 5.29174C6.86496 5.29174 5.29174 6.86496 5.29174 8.83149C5.29174 10.798 6.86496 12.3712 8.83149 12.3712C10.798 12.3712 12.3712 10.798 12.3712 8.83149C12.3712 6.86496 10.798 5.29174 8.83149 5.29174Z" fill="#DDC9A3"/>
</svg>
