<svg width="24" height="24" viewBox="0 0 24 24" fill="none" xmlns="http://www.w3.org/2000/svg">
<path d="M17.5042 7.21363L4.58117 12.1025C4.2051 12.2392 4.23929 12.7521 4.58117 12.8888L7.93157 14.017L15.5213 9.12814L9.50421 14.7349L9.36746 17.8802L11.3845 16.1708L14.1879 18.2905C14.6666 18.6665 15.3845 18.393 15.5213 17.8118L18.0512 7.69226C18.1195 7.35038 17.8118 7.07687 17.5042 7.21363ZM11.9999 0C5.36749 0 0 5.36749 0 11.9999C0 18.6324 5.36749 23.9998 11.9999 23.9998C18.6324 23.9998 23.9998 18.6324 23.9998 11.9999C24.034 5.36749 18.6324 0 11.9999 0ZM11.9999 21.9486C6.52987 21.9486 2.05127 17.5042 2.05127 11.9999C2.05127 6.49568 6.49568 2.05127 11.9999 2.05127C17.5042 2.05127 21.9486 6.49568 21.9486 11.9999C21.9486 17.5042 17.5042 21.9486 11.9999 21.9486Z" fill="#DDC9A3"/>
</svg>
