<svg width="25" height="25" viewBox="0 0 25 25" fill="none" xmlns="http://www.w3.org/2000/svg">
<path d="M13.0128 0C6.35329 0 0.991509 5.36178 0.991509 11.9872C0.991509 14.3095 1.64039 16.461 2.76739 18.3052L0.649994 24.6915L7.30953 22.5741C9.01711 23.4962 10.9296 24.0085 13.0128 24.0085C13.0811 24.0085 13.1494 23.9743 13.1836 23.9743H13.3885C19.8431 23.7694 25 18.5101 25 12.0213C25 5.36178 19.6382 0 13.0128 0ZM13.1153 21.9252H12.9104C11.5443 21.9252 10.2466 21.6179 9.05126 21.1056C8.53898 20.8665 8.02671 20.5933 7.54859 20.286L5.15799 21.0715L3.92854 21.4813L4.33835 20.3201L5.08969 17.9978C4.91893 17.7588 4.74817 17.5197 4.57741 17.2465C3.62117 15.7438 3.07475 13.9338 3.07475 11.9872C3.07475 6.52293 7.51444 2.08324 12.9787 2.08324C18.4429 2.08324 22.8826 6.52293 22.8826 11.9872C22.9168 17.4514 18.5454 21.8569 13.1153 21.9252ZM17.4525 13.08C16.5646 12.6019 16.4963 12.841 16.2914 13.08C16.0523 13.3191 15.1985 14.3095 15.1985 14.3095C15.1985 14.3095 13.73 13.8996 12.4664 12.7043C11.1686 11.509 10.9296 10.2796 10.9296 10.2796C10.9296 10.2796 11.1686 10.143 11.5785 9.66487C11.9883 9.18675 11.8858 8.70863 11.8858 8.70863L10.5881 6.01066C10.5881 6.01066 9.70013 5.7716 8.98295 6.31802C8.40238 6.72784 7.85596 7.85484 7.95841 8.94769C8.06086 10.0405 8.64144 11.4407 10.7247 13.7289C12.8079 16.017 15.1644 16.8708 15.9157 16.9391C16.7012 17.0074 17.555 16.9391 18.6137 16.2903C19.6382 15.6414 19.4333 14.2412 19.4333 14.2412C19.4333 14.2412 18.3405 13.5581 17.4525 13.08Z" fill="#DDC9A3"/>
</svg>
